<mxfile host="Electron" modified="2023-06-11T08:58:23.567Z" agent="Mozilla/5.0 (Windows NT 10.0; Win64; x64) AppleWebKit/537.36 (KHTML, like Gecko) draw.io/21.3.7 Chrome/112.0.5615.204 Electron/24.5.0 Safari/537.36" version="21.3.7" etag="AZ38lnfVFr2trBOoegbf" type="device">
  <diagram id="C5RBs43oDa-KdzZeNtuy" name="Page-1">
    <mxGraphModel dx="1434" dy="854" grid="1" gridSize="10" guides="1" tooltips="1" connect="1" arrows="1" fold="1" page="1" pageScale="1" pageWidth="827" pageHeight="1169" math="0" shadow="0">
      <root>
        <mxCell id="WIyWlLk6GJQsqaUBKTNV-0" />
        <mxCell id="WIyWlLk6GJQsqaUBKTNV-1" parent="WIyWlLk6GJQsqaUBKTNV-0" />
        <mxCell id="tUy74sg2PU9ppFAQazkP-0" value="client&lt;br&gt;" style="swimlane;whiteSpace=wrap;html=1;" vertex="1" parent="WIyWlLk6GJQsqaUBKTNV-1">
          <mxGeometry x="20" y="20" width="440" height="800" as="geometry" />
        </mxCell>
        <mxCell id="tUy74sg2PU9ppFAQazkP-1" value="Start&lt;br&gt;" style="rhombus;whiteSpace=wrap;html=1;" vertex="1" parent="tUy74sg2PU9ppFAQazkP-0">
          <mxGeometry x="20" y="30" width="120" height="80" as="geometry" />
        </mxCell>
        <mxCell id="tUy74sg2PU9ppFAQazkP-3" value="Ping Server" style="shape=process;whiteSpace=wrap;html=1;backgroundOutline=1;" vertex="1" parent="tUy74sg2PU9ppFAQazkP-0">
          <mxGeometry x="20" y="130" width="120" height="60" as="geometry" />
        </mxCell>
        <mxCell id="tUy74sg2PU9ppFAQazkP-2" style="edgeStyle=orthogonalEdgeStyle;rounded=0;orthogonalLoop=1;jettySize=auto;html=1;" edge="1" parent="tUy74sg2PU9ppFAQazkP-0" source="tUy74sg2PU9ppFAQazkP-1" target="tUy74sg2PU9ppFAQazkP-3">
          <mxGeometry relative="1" as="geometry">
            <mxPoint x="80" y="150" as="targetPoint" />
          </mxGeometry>
        </mxCell>
        <mxCell id="tUy74sg2PU9ppFAQazkP-124" style="edgeStyle=orthogonalEdgeStyle;rounded=0;orthogonalLoop=1;jettySize=auto;html=1;" edge="1" parent="tUy74sg2PU9ppFAQazkP-0" source="tUy74sg2PU9ppFAQazkP-122" target="tUy74sg2PU9ppFAQazkP-125">
          <mxGeometry relative="1" as="geometry">
            <mxPoint x="150" y="500" as="targetPoint" />
            <Array as="points">
              <mxPoint x="230" y="470" />
              <mxPoint x="150" y="470" />
            </Array>
          </mxGeometry>
        </mxCell>
        <mxCell id="tUy74sg2PU9ppFAQazkP-122" value="Display Other" style="shape=process;whiteSpace=wrap;html=1;backgroundOutline=1;" vertex="1" parent="tUy74sg2PU9ppFAQazkP-0">
          <mxGeometry x="170" y="380" width="120" height="60" as="geometry" />
        </mxCell>
        <mxCell id="tUy74sg2PU9ppFAQazkP-125" value="Does Inventory have room" style="rhombus;whiteSpace=wrap;html=1;" vertex="1" parent="tUy74sg2PU9ppFAQazkP-0">
          <mxGeometry x="90" y="500" width="120" height="80" as="geometry" />
        </mxCell>
        <mxCell id="tUy74sg2PU9ppFAQazkP-128" style="edgeStyle=orthogonalEdgeStyle;rounded=0;orthogonalLoop=1;jettySize=auto;html=1;" edge="1" parent="tUy74sg2PU9ppFAQazkP-0" source="tUy74sg2PU9ppFAQazkP-127">
          <mxGeometry relative="1" as="geometry">
            <mxPoint x="150" y="740" as="targetPoint" />
          </mxGeometry>
        </mxCell>
        <mxCell id="tUy74sg2PU9ppFAQazkP-127" value="Send Request for Items" style="shape=process;whiteSpace=wrap;html=1;backgroundOutline=1;" vertex="1" parent="tUy74sg2PU9ppFAQazkP-0">
          <mxGeometry x="90" y="630" width="120" height="60" as="geometry" />
        </mxCell>
        <mxCell id="tUy74sg2PU9ppFAQazkP-126" value="Yes" style="edgeStyle=orthogonalEdgeStyle;rounded=0;orthogonalLoop=1;jettySize=auto;html=1;" edge="1" parent="tUy74sg2PU9ppFAQazkP-0" source="tUy74sg2PU9ppFAQazkP-125" target="tUy74sg2PU9ppFAQazkP-127">
          <mxGeometry relative="1" as="geometry">
            <mxPoint x="150" y="610" as="targetPoint" />
          </mxGeometry>
        </mxCell>
        <mxCell id="tUy74sg2PU9ppFAQazkP-4" value="Server" style="swimlane;whiteSpace=wrap;html=1;" vertex="1" parent="WIyWlLk6GJQsqaUBKTNV-1">
          <mxGeometry x="560" y="20" width="440" height="880" as="geometry" />
        </mxCell>
        <mxCell id="tUy74sg2PU9ppFAQazkP-5" value="Start&lt;br&gt;" style="rhombus;whiteSpace=wrap;html=1;" vertex="1" parent="tUy74sg2PU9ppFAQazkP-4">
          <mxGeometry x="20" y="30" width="120" height="80" as="geometry" />
        </mxCell>
        <mxCell id="tUy74sg2PU9ppFAQazkP-129" value="Do Files exist" style="rhombus;whiteSpace=wrap;html=1;" vertex="1" parent="tUy74sg2PU9ppFAQazkP-4">
          <mxGeometry x="20" y="135" width="120" height="80" as="geometry" />
        </mxCell>
        <mxCell id="tUy74sg2PU9ppFAQazkP-7" style="edgeStyle=orthogonalEdgeStyle;rounded=0;orthogonalLoop=1;jettySize=auto;html=1;" edge="1" parent="tUy74sg2PU9ppFAQazkP-4" source="tUy74sg2PU9ppFAQazkP-5" target="tUy74sg2PU9ppFAQazkP-129">
          <mxGeometry relative="1" as="geometry">
            <mxPoint x="79.9655172413793" y="130" as="targetPoint" />
          </mxGeometry>
        </mxCell>
        <mxCell id="tUy74sg2PU9ppFAQazkP-134" value="Startup" style="rounded=0;whiteSpace=wrap;html=1;" vertex="1" parent="tUy74sg2PU9ppFAQazkP-4">
          <mxGeometry x="180.00000000000023" y="145" width="120" height="60" as="geometry" />
        </mxCell>
        <mxCell id="tUy74sg2PU9ppFAQazkP-130" value="No" style="edgeStyle=orthogonalEdgeStyle;rounded=0;orthogonalLoop=1;jettySize=auto;html=1;" edge="1" parent="tUy74sg2PU9ppFAQazkP-4" source="tUy74sg2PU9ppFAQazkP-129" target="tUy74sg2PU9ppFAQazkP-134">
          <mxGeometry relative="1" as="geometry">
            <mxPoint x="190.0400000000002" y="205" as="targetPoint" />
          </mxGeometry>
        </mxCell>
        <mxCell id="tUy74sg2PU9ppFAQazkP-147" style="edgeStyle=orthogonalEdgeStyle;rounded=0;orthogonalLoop=1;jettySize=auto;html=1;entryX=0.5;entryY=0;entryDx=0;entryDy=0;" edge="1" parent="tUy74sg2PU9ppFAQazkP-4" source="tUy74sg2PU9ppFAQazkP-137" target="tUy74sg2PU9ppFAQazkP-146">
          <mxGeometry relative="1" as="geometry" />
        </mxCell>
        <mxCell id="tUy74sg2PU9ppFAQazkP-137" value="Is Client Connected" style="rhombus;whiteSpace=wrap;html=1;" vertex="1" parent="tUy74sg2PU9ppFAQazkP-4">
          <mxGeometry x="20" y="260" width="120" height="80" as="geometry" />
        </mxCell>
        <mxCell id="tUy74sg2PU9ppFAQazkP-135" value="Yes" style="edgeStyle=orthogonalEdgeStyle;rounded=0;orthogonalLoop=1;jettySize=auto;html=1;" edge="1" parent="tUy74sg2PU9ppFAQazkP-4" source="tUy74sg2PU9ppFAQazkP-129" target="tUy74sg2PU9ppFAQazkP-137">
          <mxGeometry relative="1" as="geometry">
            <mxPoint x="80" y="270" as="targetPoint" />
          </mxGeometry>
        </mxCell>
        <mxCell id="tUy74sg2PU9ppFAQazkP-140" value="Yes" style="edgeStyle=orthogonalEdgeStyle;rounded=0;orthogonalLoop=1;jettySize=auto;html=1;entryX=0.5;entryY=0;entryDx=0;entryDy=0;" edge="1" parent="tUy74sg2PU9ppFAQazkP-4" source="tUy74sg2PU9ppFAQazkP-139" target="tUy74sg2PU9ppFAQazkP-142">
          <mxGeometry relative="1" as="geometry">
            <mxPoint x="80" y="550" as="targetPoint" />
          </mxGeometry>
        </mxCell>
        <mxCell id="tUy74sg2PU9ppFAQazkP-141" value="No" style="edgeStyle=orthogonalEdgeStyle;rounded=0;orthogonalLoop=1;jettySize=auto;html=1;entryX=1;entryY=0.5;entryDx=0;entryDy=0;" edge="1" parent="tUy74sg2PU9ppFAQazkP-4" source="tUy74sg2PU9ppFAQazkP-139" target="tUy74sg2PU9ppFAQazkP-137">
          <mxGeometry relative="1" as="geometry">
            <Array as="points">
              <mxPoint x="190" y="480" />
              <mxPoint x="190" y="300" />
            </Array>
          </mxGeometry>
        </mxCell>
        <mxCell id="tUy74sg2PU9ppFAQazkP-139" value="Is Request for Items" style="rhombus;whiteSpace=wrap;html=1;" vertex="1" parent="tUy74sg2PU9ppFAQazkP-4">
          <mxGeometry x="20" y="440" width="120" height="80" as="geometry" />
        </mxCell>
        <mxCell id="tUy74sg2PU9ppFAQazkP-142" value="Is Player Inventory Full" style="rhombus;whiteSpace=wrap;html=1;" vertex="1" parent="tUy74sg2PU9ppFAQazkP-4">
          <mxGeometry x="20" y="560" width="120" height="80" as="geometry" />
        </mxCell>
        <mxCell id="tUy74sg2PU9ppFAQazkP-144" value="Send Item amount" style="shape=process;whiteSpace=wrap;html=1;backgroundOutline=1;" vertex="1" parent="tUy74sg2PU9ppFAQazkP-4">
          <mxGeometry x="20" y="670" width="120" height="60" as="geometry" />
        </mxCell>
        <mxCell id="tUy74sg2PU9ppFAQazkP-143" value="No" style="edgeStyle=orthogonalEdgeStyle;rounded=0;orthogonalLoop=1;jettySize=auto;html=1;" edge="1" parent="tUy74sg2PU9ppFAQazkP-4" source="tUy74sg2PU9ppFAQazkP-142" target="tUy74sg2PU9ppFAQazkP-144">
          <mxGeometry relative="1" as="geometry">
            <mxPoint x="80" y="670" as="targetPoint" />
          </mxGeometry>
        </mxCell>
        <mxCell id="tUy74sg2PU9ppFAQazkP-148" style="edgeStyle=orthogonalEdgeStyle;rounded=0;orthogonalLoop=1;jettySize=auto;html=1;entryX=0.5;entryY=0;entryDx=0;entryDy=0;" edge="1" parent="tUy74sg2PU9ppFAQazkP-4" source="tUy74sg2PU9ppFAQazkP-146" target="tUy74sg2PU9ppFAQazkP-139">
          <mxGeometry relative="1" as="geometry" />
        </mxCell>
        <mxCell id="tUy74sg2PU9ppFAQazkP-146" value="Pull Files" style="shape=process;whiteSpace=wrap;html=1;backgroundOutline=1;" vertex="1" parent="tUy74sg2PU9ppFAQazkP-4">
          <mxGeometry x="20" y="360" width="120" height="60" as="geometry" />
        </mxCell>
        <mxCell id="tUy74sg2PU9ppFAQazkP-151" style="edgeStyle=orthogonalEdgeStyle;rounded=0;orthogonalLoop=1;jettySize=auto;html=1;entryX=1;entryY=0.5;entryDx=0;entryDy=0;" edge="1" parent="tUy74sg2PU9ppFAQazkP-4" source="tUy74sg2PU9ppFAQazkP-150" target="tUy74sg2PU9ppFAQazkP-137">
          <mxGeometry relative="1" as="geometry">
            <Array as="points">
              <mxPoint x="190" y="790" />
              <mxPoint x="190" y="300" />
            </Array>
          </mxGeometry>
        </mxCell>
        <mxCell id="tUy74sg2PU9ppFAQazkP-150" value="Update File" style="shape=process;whiteSpace=wrap;html=1;backgroundOutline=1;" vertex="1" parent="tUy74sg2PU9ppFAQazkP-4">
          <mxGeometry x="20" y="760" width="120" height="60" as="geometry" />
        </mxCell>
        <mxCell id="tUy74sg2PU9ppFAQazkP-149" style="edgeStyle=orthogonalEdgeStyle;rounded=0;orthogonalLoop=1;jettySize=auto;html=1;" edge="1" parent="tUy74sg2PU9ppFAQazkP-4" source="tUy74sg2PU9ppFAQazkP-144" target="tUy74sg2PU9ppFAQazkP-150">
          <mxGeometry relative="1" as="geometry">
            <mxPoint x="80" y="770" as="targetPoint" />
          </mxGeometry>
        </mxCell>
        <mxCell id="tUy74sg2PU9ppFAQazkP-8" value="Startup / Verify" style="swimlane;whiteSpace=wrap;html=1;" vertex="1" parent="WIyWlLk6GJQsqaUBKTNV-1">
          <mxGeometry x="1350" y="30" width="570" height="730" as="geometry" />
        </mxCell>
        <mxCell id="tUy74sg2PU9ppFAQazkP-11" style="edgeStyle=orthogonalEdgeStyle;rounded=0;orthogonalLoop=1;jettySize=auto;html=1;" edge="1" parent="tUy74sg2PU9ppFAQazkP-8" source="tUy74sg2PU9ppFAQazkP-9" target="tUy74sg2PU9ppFAQazkP-10">
          <mxGeometry relative="1" as="geometry" />
        </mxCell>
        <mxCell id="tUy74sg2PU9ppFAQazkP-9" value="Server" style="rhombus;whiteSpace=wrap;html=1;" vertex="1" parent="tUy74sg2PU9ppFAQazkP-8">
          <mxGeometry x="80" y="30" width="120" height="80" as="geometry" />
        </mxCell>
        <mxCell id="tUy74sg2PU9ppFAQazkP-10" value="Get all peripherals" style="shape=process;whiteSpace=wrap;html=1;backgroundOutline=1;" vertex="1" parent="tUy74sg2PU9ppFAQazkP-8">
          <mxGeometry x="80" y="140" width="120" height="60" as="geometry" />
        </mxCell>
        <mxCell id="tUy74sg2PU9ppFAQazkP-26" style="edgeStyle=orthogonalEdgeStyle;rounded=0;orthogonalLoop=1;jettySize=auto;html=1;entryX=0.5;entryY=0;entryDx=0;entryDy=0;" edge="1" parent="tUy74sg2PU9ppFAQazkP-8" source="tUy74sg2PU9ppFAQazkP-16" target="tUy74sg2PU9ppFAQazkP-25">
          <mxGeometry relative="1" as="geometry" />
        </mxCell>
        <mxCell id="tUy74sg2PU9ppFAQazkP-16" value="Catalogue container into table" style="shape=process;whiteSpace=wrap;html=1;backgroundOutline=1;" vertex="1" parent="tUy74sg2PU9ppFAQazkP-8">
          <mxGeometry x="80" y="420" width="120" height="60" as="geometry" />
        </mxCell>
        <mxCell id="tUy74sg2PU9ppFAQazkP-21" value="Identify contents" style="shape=process;whiteSpace=wrap;html=1;backgroundOutline=1;" vertex="1" parent="tUy74sg2PU9ppFAQazkP-8">
          <mxGeometry x="250" y="310" width="120" height="60" as="geometry" />
        </mxCell>
        <mxCell id="tUy74sg2PU9ppFAQazkP-23" value="Find closest match label on pre-established list" style="shape=process;whiteSpace=wrap;html=1;backgroundOutline=1;" vertex="1" parent="tUy74sg2PU9ppFAQazkP-8">
          <mxGeometry x="420" y="310" width="120" height="60" as="geometry" />
        </mxCell>
        <mxCell id="tUy74sg2PU9ppFAQazkP-22" style="edgeStyle=orthogonalEdgeStyle;rounded=0;orthogonalLoop=1;jettySize=auto;html=1;" edge="1" parent="tUy74sg2PU9ppFAQazkP-8" source="tUy74sg2PU9ppFAQazkP-21" target="tUy74sg2PU9ppFAQazkP-23">
          <mxGeometry relative="1" as="geometry">
            <mxPoint x="440" y="340" as="targetPoint" />
          </mxGeometry>
        </mxCell>
        <mxCell id="tUy74sg2PU9ppFAQazkP-25" value="All containers labelled" style="rhombus;whiteSpace=wrap;html=1;" vertex="1" parent="tUy74sg2PU9ppFAQazkP-8">
          <mxGeometry x="100" y="500" width="80" height="80" as="geometry" />
        </mxCell>
        <mxCell id="tUy74sg2PU9ppFAQazkP-47" style="edgeStyle=orthogonalEdgeStyle;rounded=0;orthogonalLoop=1;jettySize=auto;html=1;entryX=0.006;entryY=0.136;entryDx=0;entryDy=0;entryPerimeter=0;" edge="1" parent="tUy74sg2PU9ppFAQazkP-8" source="tUy74sg2PU9ppFAQazkP-29" target="tUy74sg2PU9ppFAQazkP-39">
          <mxGeometry relative="1" as="geometry" />
        </mxCell>
        <mxCell id="tUy74sg2PU9ppFAQazkP-29" value="Write File" style="shape=process;whiteSpace=wrap;html=1;backgroundOutline=1;" vertex="1" parent="tUy74sg2PU9ppFAQazkP-8">
          <mxGeometry x="80" y="630" width="120" height="60" as="geometry" />
        </mxCell>
        <mxCell id="tUy74sg2PU9ppFAQazkP-28" value="Yes" style="edgeStyle=orthogonalEdgeStyle;rounded=0;orthogonalLoop=1;jettySize=auto;html=1;" edge="1" parent="tUy74sg2PU9ppFAQazkP-8" source="tUy74sg2PU9ppFAQazkP-25" target="tUy74sg2PU9ppFAQazkP-29">
          <mxGeometry relative="1" as="geometry">
            <mxPoint x="140" y="610" as="targetPoint" />
          </mxGeometry>
        </mxCell>
        <mxCell id="tUy74sg2PU9ppFAQazkP-39" value="Files" style="swimlane;fontStyle=0;childLayout=stackLayout;horizontal=1;startSize=30;horizontalStack=0;resizeParent=1;resizeParentMax=0;resizeLast=0;collapsible=1;marginBottom=0;whiteSpace=wrap;html=1;" vertex="1" parent="tUy74sg2PU9ppFAQazkP-8">
          <mxGeometry x="280" y="470" width="140" height="30" as="geometry" />
        </mxCell>
        <mxCell id="tUy74sg2PU9ppFAQazkP-15" value="yes" style="edgeStyle=orthogonalEdgeStyle;rounded=0;orthogonalLoop=1;jettySize=auto;html=1;" edge="1" parent="WIyWlLk6GJQsqaUBKTNV-1" source="tUy74sg2PU9ppFAQazkP-17" target="tUy74sg2PU9ppFAQazkP-16">
          <mxGeometry relative="1" as="geometry">
            <mxPoint x="1490" y="360" as="targetPoint" />
          </mxGeometry>
        </mxCell>
        <mxCell id="tUy74sg2PU9ppFAQazkP-13" value="Identify container label" style="shape=process;whiteSpace=wrap;html=1;backgroundOutline=1;" vertex="1" parent="WIyWlLk6GJQsqaUBKTNV-1">
          <mxGeometry x="1430" y="250" width="120" height="60" as="geometry" />
        </mxCell>
        <mxCell id="tUy74sg2PU9ppFAQazkP-12" style="edgeStyle=orthogonalEdgeStyle;rounded=0;orthogonalLoop=1;jettySize=auto;html=1;" edge="1" parent="WIyWlLk6GJQsqaUBKTNV-1" source="tUy74sg2PU9ppFAQazkP-10" target="tUy74sg2PU9ppFAQazkP-13">
          <mxGeometry relative="1" as="geometry">
            <mxPoint x="1490" y="280" as="targetPoint" />
          </mxGeometry>
        </mxCell>
        <mxCell id="tUy74sg2PU9ppFAQazkP-18" value="" style="edgeStyle=orthogonalEdgeStyle;rounded=0;orthogonalLoop=1;jettySize=auto;html=1;" edge="1" parent="WIyWlLk6GJQsqaUBKTNV-1" source="tUy74sg2PU9ppFAQazkP-13" target="tUy74sg2PU9ppFAQazkP-17">
          <mxGeometry relative="1" as="geometry">
            <mxPoint x="1490" y="450" as="targetPoint" />
            <mxPoint x="1490" y="310" as="sourcePoint" />
          </mxGeometry>
        </mxCell>
        <mxCell id="tUy74sg2PU9ppFAQazkP-20" value="no" style="edgeStyle=orthogonalEdgeStyle;rounded=0;orthogonalLoop=1;jettySize=auto;html=1;" edge="1" parent="WIyWlLk6GJQsqaUBKTNV-1" source="tUy74sg2PU9ppFAQazkP-17" target="tUy74sg2PU9ppFAQazkP-21">
          <mxGeometry relative="1" as="geometry">
            <mxPoint x="1610" y="370" as="targetPoint" />
          </mxGeometry>
        </mxCell>
        <mxCell id="tUy74sg2PU9ppFAQazkP-17" value="Does container have label" style="rhombus;whiteSpace=wrap;html=1;" vertex="1" parent="WIyWlLk6GJQsqaUBKTNV-1">
          <mxGeometry x="1430" y="330" width="120" height="80" as="geometry" />
        </mxCell>
        <mxCell id="tUy74sg2PU9ppFAQazkP-24" style="edgeStyle=orthogonalEdgeStyle;rounded=0;orthogonalLoop=1;jettySize=auto;html=1;entryX=1;entryY=0.5;entryDx=0;entryDy=0;" edge="1" parent="WIyWlLk6GJQsqaUBKTNV-1" source="tUy74sg2PU9ppFAQazkP-23" target="tUy74sg2PU9ppFAQazkP-13">
          <mxGeometry relative="1" as="geometry">
            <Array as="points">
              <mxPoint x="1830" y="280" />
            </Array>
          </mxGeometry>
        </mxCell>
        <mxCell id="tUy74sg2PU9ppFAQazkP-27" value="No" style="edgeStyle=orthogonalEdgeStyle;rounded=0;orthogonalLoop=1;jettySize=auto;html=1;entryX=0;entryY=0.5;entryDx=0;entryDy=0;" edge="1" parent="WIyWlLk6GJQsqaUBKTNV-1" source="tUy74sg2PU9ppFAQazkP-25" target="tUy74sg2PU9ppFAQazkP-13">
          <mxGeometry relative="1" as="geometry">
            <Array as="points">
              <mxPoint x="1410" y="570" />
              <mxPoint x="1410" y="280" />
            </Array>
          </mxGeometry>
        </mxCell>
        <mxCell id="tUy74sg2PU9ppFAQazkP-35" style="edgeStyle=orthogonalEdgeStyle;rounded=0;orthogonalLoop=1;jettySize=auto;html=1;" edge="1" parent="WIyWlLk6GJQsqaUBKTNV-1" source="tUy74sg2PU9ppFAQazkP-30" target="tUy74sg2PU9ppFAQazkP-23">
          <mxGeometry relative="1" as="geometry" />
        </mxCell>
        <mxCell id="tUy74sg2PU9ppFAQazkP-48" style="edgeStyle=orthogonalEdgeStyle;rounded=0;orthogonalLoop=1;jettySize=auto;html=1;" edge="1" parent="WIyWlLk6GJQsqaUBKTNV-1" source="tUy74sg2PU9ppFAQazkP-30">
          <mxGeometry relative="1" as="geometry">
            <mxPoint x="1770" y="515" as="targetPoint" />
            <Array as="points">
              <mxPoint x="2024" y="560" />
              <mxPoint x="1900" y="560" />
              <mxPoint x="1900" y="510" />
              <mxPoint x="1773" y="510" />
            </Array>
          </mxGeometry>
        </mxCell>
        <mxCell id="tUy74sg2PU9ppFAQazkP-114" style="edgeStyle=orthogonalEdgeStyle;rounded=0;orthogonalLoop=1;jettySize=auto;html=1;" edge="1" parent="WIyWlLk6GJQsqaUBKTNV-1" source="tUy74sg2PU9ppFAQazkP-30" target="tUy74sg2PU9ppFAQazkP-85">
          <mxGeometry relative="1" as="geometry" />
        </mxCell>
        <mxCell id="tUy74sg2PU9ppFAQazkP-30" value="Labels" style="swimlane;fontStyle=0;childLayout=stackLayout;horizontal=1;startSize=30;horizontalStack=0;resizeParent=1;resizeParentMax=0;resizeLast=0;collapsible=1;marginBottom=0;whiteSpace=wrap;html=1;" vertex="1" parent="WIyWlLk6GJQsqaUBKTNV-1">
          <mxGeometry x="1954" y="190" width="140" height="360" as="geometry" />
        </mxCell>
        <mxCell id="tUy74sg2PU9ppFAQazkP-31" value="Nature Blocks" style="text;strokeColor=none;fillColor=none;align=left;verticalAlign=middle;spacingLeft=4;spacingRight=4;overflow=hidden;points=[[0,0.5],[1,0.5]];portConstraint=eastwest;rotatable=0;whiteSpace=wrap;html=1;" vertex="1" parent="tUy74sg2PU9ppFAQazkP-30">
          <mxGeometry y="30" width="140" height="30" as="geometry" />
        </mxCell>
        <mxCell id="tUy74sg2PU9ppFAQazkP-32" value="Raw Blocks" style="text;strokeColor=none;fillColor=none;align=left;verticalAlign=middle;spacingLeft=4;spacingRight=4;overflow=hidden;points=[[0,0.5],[1,0.5]];portConstraint=eastwest;rotatable=0;whiteSpace=wrap;html=1;" vertex="1" parent="tUy74sg2PU9ppFAQazkP-30">
          <mxGeometry y="60" width="140" height="30" as="geometry" />
        </mxCell>
        <mxCell id="tUy74sg2PU9ppFAQazkP-36" value="Wood Blocks" style="text;strokeColor=none;fillColor=none;align=left;verticalAlign=middle;spacingLeft=4;spacingRight=4;overflow=hidden;points=[[0,0.5],[1,0.5]];portConstraint=eastwest;rotatable=0;whiteSpace=wrap;html=1;" vertex="1" parent="tUy74sg2PU9ppFAQazkP-30">
          <mxGeometry y="90" width="140" height="30" as="geometry" />
        </mxCell>
        <mxCell id="tUy74sg2PU9ppFAQazkP-58" value="Other Blocks" style="text;strokeColor=none;fillColor=none;align=left;verticalAlign=middle;spacingLeft=4;spacingRight=4;overflow=hidden;points=[[0,0.5],[1,0.5]];portConstraint=eastwest;rotatable=0;whiteSpace=wrap;html=1;" vertex="1" parent="tUy74sg2PU9ppFAQazkP-30">
          <mxGeometry y="120" width="140" height="30" as="geometry" />
        </mxCell>
        <mxCell id="tUy74sg2PU9ppFAQazkP-84" value="Resources" style="text;strokeColor=none;fillColor=none;align=left;verticalAlign=middle;spacingLeft=4;spacingRight=4;overflow=hidden;points=[[0,0.5],[1,0.5]];portConstraint=eastwest;rotatable=0;whiteSpace=wrap;html=1;" vertex="1" parent="tUy74sg2PU9ppFAQazkP-30">
          <mxGeometry y="150" width="140" height="30" as="geometry" />
        </mxCell>
        <mxCell id="tUy74sg2PU9ppFAQazkP-33" value="Food" style="text;strokeColor=none;fillColor=none;align=left;verticalAlign=middle;spacingLeft=4;spacingRight=4;overflow=hidden;points=[[0,0.5],[1,0.5]];portConstraint=eastwest;rotatable=0;whiteSpace=wrap;html=1;" vertex="1" parent="tUy74sg2PU9ppFAQazkP-30">
          <mxGeometry y="180" width="140" height="30" as="geometry" />
        </mxCell>
        <mxCell id="tUy74sg2PU9ppFAQazkP-38" value="CC" style="text;strokeColor=none;fillColor=none;align=left;verticalAlign=middle;spacingLeft=4;spacingRight=4;overflow=hidden;points=[[0,0.5],[1,0.5]];portConstraint=eastwest;rotatable=0;whiteSpace=wrap;html=1;" vertex="1" parent="tUy74sg2PU9ppFAQazkP-30">
          <mxGeometry y="210" width="140" height="30" as="geometry" />
        </mxCell>
        <mxCell id="tUy74sg2PU9ppFAQazkP-37" value="Items" style="text;strokeColor=none;fillColor=none;align=left;verticalAlign=middle;spacingLeft=4;spacingRight=4;overflow=hidden;points=[[0,0.5],[1,0.5]];portConstraint=eastwest;rotatable=0;whiteSpace=wrap;html=1;" vertex="1" parent="tUy74sg2PU9ppFAQazkP-30">
          <mxGeometry y="240" width="140" height="30" as="geometry" />
        </mxCell>
        <mxCell id="tUy74sg2PU9ppFAQazkP-43" value="Tools" style="text;strokeColor=none;fillColor=none;align=left;verticalAlign=middle;spacingLeft=4;spacingRight=4;overflow=hidden;points=[[0,0.5],[1,0.5]];portConstraint=eastwest;rotatable=0;whiteSpace=wrap;html=1;" vertex="1" parent="tUy74sg2PU9ppFAQazkP-30">
          <mxGeometry y="270" width="140" height="30" as="geometry" />
        </mxCell>
        <mxCell id="tUy74sg2PU9ppFAQazkP-44" value="Armour" style="text;strokeColor=none;fillColor=none;align=left;verticalAlign=middle;spacingLeft=4;spacingRight=4;overflow=hidden;points=[[0,0.5],[1,0.5]];portConstraint=eastwest;rotatable=0;whiteSpace=wrap;html=1;" vertex="1" parent="tUy74sg2PU9ppFAQazkP-30">
          <mxGeometry y="300" width="140" height="30" as="geometry" />
        </mxCell>
        <mxCell id="tUy74sg2PU9ppFAQazkP-45" value="Misc" style="text;strokeColor=none;fillColor=none;align=left;verticalAlign=middle;spacingLeft=4;spacingRight=4;overflow=hidden;points=[[0,0.5],[1,0.5]];portConstraint=eastwest;rotatable=0;whiteSpace=wrap;html=1;" vertex="1" parent="tUy74sg2PU9ppFAQazkP-30">
          <mxGeometry y="330" width="140" height="30" as="geometry" />
        </mxCell>
        <mxCell id="tUy74sg2PU9ppFAQazkP-85" value="" style="swimlane;startSize=0;" vertex="1" parent="WIyWlLk6GJQsqaUBKTNV-1">
          <mxGeometry x="2140" y="85" width="440" height="570" as="geometry" />
        </mxCell>
        <mxCell id="tUy74sg2PU9ppFAQazkP-54" value="Nature Blocks" style="swimlane;fontStyle=0;childLayout=stackLayout;horizontal=1;startSize=30;horizontalStack=0;resizeParent=1;resizeParentMax=0;resizeLast=0;collapsible=1;marginBottom=0;whiteSpace=wrap;html=1;" vertex="1" parent="tUy74sg2PU9ppFAQazkP-85">
          <mxGeometry width="140" height="120" as="geometry" />
        </mxCell>
        <mxCell id="tUy74sg2PU9ppFAQazkP-55" value="Dirt / Grass" style="text;strokeColor=none;fillColor=none;align=left;verticalAlign=middle;spacingLeft=4;spacingRight=4;overflow=hidden;points=[[0,0.5],[1,0.5]];portConstraint=eastwest;rotatable=0;whiteSpace=wrap;html=1;" vertex="1" parent="tUy74sg2PU9ppFAQazkP-54">
          <mxGeometry y="30" width="140" height="30" as="geometry" />
        </mxCell>
        <mxCell id="tUy74sg2PU9ppFAQazkP-56" value="Foliage" style="text;strokeColor=none;fillColor=none;align=left;verticalAlign=middle;spacingLeft=4;spacingRight=4;overflow=hidden;points=[[0,0.5],[1,0.5]];portConstraint=eastwest;rotatable=0;whiteSpace=wrap;html=1;" vertex="1" parent="tUy74sg2PU9ppFAQazkP-54">
          <mxGeometry y="60" width="140" height="30" as="geometry" />
        </mxCell>
        <mxCell id="tUy74sg2PU9ppFAQazkP-57" value="Other" style="text;strokeColor=none;fillColor=none;align=left;verticalAlign=middle;spacingLeft=4;spacingRight=4;overflow=hidden;points=[[0,0.5],[1,0.5]];portConstraint=eastwest;rotatable=0;whiteSpace=wrap;html=1;" vertex="1" parent="tUy74sg2PU9ppFAQazkP-54">
          <mxGeometry y="90" width="140" height="30" as="geometry" />
        </mxCell>
        <mxCell id="tUy74sg2PU9ppFAQazkP-60" value="Raw Blocks" style="swimlane;fontStyle=0;childLayout=stackLayout;horizontal=1;startSize=30;horizontalStack=0;resizeParent=1;resizeParentMax=0;resizeLast=0;collapsible=1;marginBottom=0;whiteSpace=wrap;html=1;" vertex="1" parent="tUy74sg2PU9ppFAQazkP-85">
          <mxGeometry y="120" width="140" height="120" as="geometry" />
        </mxCell>
        <mxCell id="tUy74sg2PU9ppFAQazkP-61" value="Cobble types" style="text;strokeColor=none;fillColor=none;align=left;verticalAlign=middle;spacingLeft=4;spacingRight=4;overflow=hidden;points=[[0,0.5],[1,0.5]];portConstraint=eastwest;rotatable=0;whiteSpace=wrap;html=1;" vertex="1" parent="tUy74sg2PU9ppFAQazkP-60">
          <mxGeometry y="30" width="140" height="30" as="geometry" />
        </mxCell>
        <mxCell id="tUy74sg2PU9ppFAQazkP-62" value="Smooth types" style="text;strokeColor=none;fillColor=none;align=left;verticalAlign=middle;spacingLeft=4;spacingRight=4;overflow=hidden;points=[[0,0.5],[1,0.5]];portConstraint=eastwest;rotatable=0;whiteSpace=wrap;html=1;" vertex="1" parent="tUy74sg2PU9ppFAQazkP-60">
          <mxGeometry y="60" width="140" height="30" as="geometry" />
        </mxCell>
        <mxCell id="tUy74sg2PU9ppFAQazkP-63" value="Build blocks (slabs etc)" style="text;strokeColor=none;fillColor=none;align=left;verticalAlign=middle;spacingLeft=4;spacingRight=4;overflow=hidden;points=[[0,0.5],[1,0.5]];portConstraint=eastwest;rotatable=0;whiteSpace=wrap;html=1;" vertex="1" parent="tUy74sg2PU9ppFAQazkP-60">
          <mxGeometry y="90" width="140" height="30" as="geometry" />
        </mxCell>
        <mxCell id="tUy74sg2PU9ppFAQazkP-64" value="Wood Blocks" style="swimlane;fontStyle=0;childLayout=stackLayout;horizontal=1;startSize=30;horizontalStack=0;resizeParent=1;resizeParentMax=0;resizeLast=0;collapsible=1;marginBottom=0;whiteSpace=wrap;html=1;" vertex="1" parent="tUy74sg2PU9ppFAQazkP-85">
          <mxGeometry y="240" width="140" height="120" as="geometry" />
        </mxCell>
        <mxCell id="tUy74sg2PU9ppFAQazkP-65" value="Logs" style="text;strokeColor=none;fillColor=none;align=left;verticalAlign=middle;spacingLeft=4;spacingRight=4;overflow=hidden;points=[[0,0.5],[1,0.5]];portConstraint=eastwest;rotatable=0;whiteSpace=wrap;html=1;" vertex="1" parent="tUy74sg2PU9ppFAQazkP-64">
          <mxGeometry y="30" width="140" height="30" as="geometry" />
        </mxCell>
        <mxCell id="tUy74sg2PU9ppFAQazkP-66" value="Planks" style="text;strokeColor=none;fillColor=none;align=left;verticalAlign=middle;spacingLeft=4;spacingRight=4;overflow=hidden;points=[[0,0.5],[1,0.5]];portConstraint=eastwest;rotatable=0;whiteSpace=wrap;html=1;" vertex="1" parent="tUy74sg2PU9ppFAQazkP-64">
          <mxGeometry y="60" width="140" height="30" as="geometry" />
        </mxCell>
        <mxCell id="tUy74sg2PU9ppFAQazkP-67" value="build blocks" style="text;strokeColor=none;fillColor=none;align=left;verticalAlign=middle;spacingLeft=4;spacingRight=4;overflow=hidden;points=[[0,0.5],[1,0.5]];portConstraint=eastwest;rotatable=0;whiteSpace=wrap;html=1;" vertex="1" parent="tUy74sg2PU9ppFAQazkP-64">
          <mxGeometry y="90" width="140" height="30" as="geometry" />
        </mxCell>
        <mxCell id="tUy74sg2PU9ppFAQazkP-68" value="Other Blocks" style="swimlane;fontStyle=0;childLayout=stackLayout;horizontal=1;startSize=30;horizontalStack=0;resizeParent=1;resizeParentMax=0;resizeLast=0;collapsible=1;marginBottom=0;whiteSpace=wrap;html=1;" vertex="1" parent="tUy74sg2PU9ppFAQazkP-85">
          <mxGeometry y="360" width="140" height="120" as="geometry" />
        </mxCell>
        <mxCell id="tUy74sg2PU9ppFAQazkP-69" value="Concretes" style="text;strokeColor=none;fillColor=none;align=left;verticalAlign=middle;spacingLeft=4;spacingRight=4;overflow=hidden;points=[[0,0.5],[1,0.5]];portConstraint=eastwest;rotatable=0;whiteSpace=wrap;html=1;" vertex="1" parent="tUy74sg2PU9ppFAQazkP-68">
          <mxGeometry y="30" width="140" height="30" as="geometry" />
        </mxCell>
        <mxCell id="tUy74sg2PU9ppFAQazkP-70" value="Terracotta" style="text;strokeColor=none;fillColor=none;align=left;verticalAlign=middle;spacingLeft=4;spacingRight=4;overflow=hidden;points=[[0,0.5],[1,0.5]];portConstraint=eastwest;rotatable=0;whiteSpace=wrap;html=1;" vertex="1" parent="tUy74sg2PU9ppFAQazkP-68">
          <mxGeometry y="60" width="140" height="30" as="geometry" />
        </mxCell>
        <mxCell id="tUy74sg2PU9ppFAQazkP-71" value="Wool" style="text;strokeColor=none;fillColor=none;align=left;verticalAlign=middle;spacingLeft=4;spacingRight=4;overflow=hidden;points=[[0,0.5],[1,0.5]];portConstraint=eastwest;rotatable=0;whiteSpace=wrap;html=1;" vertex="1" parent="tUy74sg2PU9ppFAQazkP-68">
          <mxGeometry y="90" width="140" height="30" as="geometry" />
        </mxCell>
        <mxCell id="tUy74sg2PU9ppFAQazkP-72" value="Resources" style="swimlane;fontStyle=0;childLayout=stackLayout;horizontal=1;startSize=30;horizontalStack=0;resizeParent=1;resizeParentMax=0;resizeLast=0;collapsible=1;marginBottom=0;whiteSpace=wrap;html=1;" vertex="1" parent="tUy74sg2PU9ppFAQazkP-85">
          <mxGeometry x="150" width="140" height="180" as="geometry" />
        </mxCell>
        <mxCell id="tUy74sg2PU9ppFAQazkP-73" value="Mob Loot" style="text;strokeColor=none;fillColor=none;align=left;verticalAlign=middle;spacingLeft=4;spacingRight=4;overflow=hidden;points=[[0,0.5],[1,0.5]];portConstraint=eastwest;rotatable=0;whiteSpace=wrap;html=1;" vertex="1" parent="tUy74sg2PU9ppFAQazkP-72">
          <mxGeometry y="30" width="140" height="30" as="geometry" />
        </mxCell>
        <mxCell id="tUy74sg2PU9ppFAQazkP-74" value="Valuables&lt;br&gt;" style="text;strokeColor=none;fillColor=none;align=left;verticalAlign=middle;spacingLeft=4;spacingRight=4;overflow=hidden;points=[[0,0.5],[1,0.5]];portConstraint=eastwest;rotatable=0;whiteSpace=wrap;html=1;" vertex="1" parent="tUy74sg2PU9ppFAQazkP-72">
          <mxGeometry y="60" width="140" height="30" as="geometry" />
        </mxCell>
        <mxCell id="tUy74sg2PU9ppFAQazkP-75" value="Misc crafting" style="text;strokeColor=none;fillColor=none;align=left;verticalAlign=middle;spacingLeft=4;spacingRight=4;overflow=hidden;points=[[0,0.5],[1,0.5]];portConstraint=eastwest;rotatable=0;whiteSpace=wrap;html=1;" vertex="1" parent="tUy74sg2PU9ppFAQazkP-72">
          <mxGeometry y="90" width="140" height="30" as="geometry" />
        </mxCell>
        <mxCell id="tUy74sg2PU9ppFAQazkP-99" value="Enchants" style="text;strokeColor=none;fillColor=none;align=left;verticalAlign=middle;spacingLeft=4;spacingRight=4;overflow=hidden;points=[[0,0.5],[1,0.5]];portConstraint=eastwest;rotatable=0;whiteSpace=wrap;html=1;" vertex="1" parent="tUy74sg2PU9ppFAQazkP-72">
          <mxGeometry y="120" width="140" height="30" as="geometry" />
        </mxCell>
        <mxCell id="tUy74sg2PU9ppFAQazkP-88" value="Other&amp;nbsp;" style="text;strokeColor=none;fillColor=none;align=left;verticalAlign=middle;spacingLeft=4;spacingRight=4;overflow=hidden;points=[[0,0.5],[1,0.5]];portConstraint=eastwest;rotatable=0;whiteSpace=wrap;html=1;" vertex="1" parent="tUy74sg2PU9ppFAQazkP-72">
          <mxGeometry y="150" width="140" height="30" as="geometry" />
        </mxCell>
        <mxCell id="tUy74sg2PU9ppFAQazkP-76" value="Food" style="swimlane;fontStyle=0;childLayout=stackLayout;horizontal=1;startSize=30;horizontalStack=0;resizeParent=1;resizeParentMax=0;resizeLast=0;collapsible=1;marginBottom=0;whiteSpace=wrap;html=1;" vertex="1" parent="tUy74sg2PU9ppFAQazkP-85">
          <mxGeometry x="150" y="180" width="140" height="150" as="geometry" />
        </mxCell>
        <mxCell id="tUy74sg2PU9ppFAQazkP-77" value="Cooked" style="text;strokeColor=none;fillColor=none;align=left;verticalAlign=middle;spacingLeft=4;spacingRight=4;overflow=hidden;points=[[0,0.5],[1,0.5]];portConstraint=eastwest;rotatable=0;whiteSpace=wrap;html=1;" vertex="1" parent="tUy74sg2PU9ppFAQazkP-76">
          <mxGeometry y="30" width="140" height="30" as="geometry" />
        </mxCell>
        <mxCell id="tUy74sg2PU9ppFAQazkP-78" value="Raw" style="text;strokeColor=none;fillColor=none;align=left;verticalAlign=middle;spacingLeft=4;spacingRight=4;overflow=hidden;points=[[0,0.5],[1,0.5]];portConstraint=eastwest;rotatable=0;whiteSpace=wrap;html=1;" vertex="1" parent="tUy74sg2PU9ppFAQazkP-76">
          <mxGeometry y="60" width="140" height="30" as="geometry" />
        </mxCell>
        <mxCell id="tUy74sg2PU9ppFAQazkP-79" value="Veg" style="text;strokeColor=none;fillColor=none;align=left;verticalAlign=middle;spacingLeft=4;spacingRight=4;overflow=hidden;points=[[0,0.5],[1,0.5]];portConstraint=eastwest;rotatable=0;whiteSpace=wrap;html=1;" vertex="1" parent="tUy74sg2PU9ppFAQazkP-76">
          <mxGeometry y="90" width="140" height="30" as="geometry" />
        </mxCell>
        <mxCell id="tUy74sg2PU9ppFAQazkP-89" value="Other" style="text;strokeColor=none;fillColor=none;align=left;verticalAlign=middle;spacingLeft=4;spacingRight=4;overflow=hidden;points=[[0,0.5],[1,0.5]];portConstraint=eastwest;rotatable=0;whiteSpace=wrap;html=1;" vertex="1" parent="tUy74sg2PU9ppFAQazkP-76">
          <mxGeometry y="120" width="140" height="30" as="geometry" />
        </mxCell>
        <mxCell id="tUy74sg2PU9ppFAQazkP-80" value="CC" style="swimlane;fontStyle=0;childLayout=stackLayout;horizontal=1;startSize=30;horizontalStack=0;resizeParent=1;resizeParentMax=0;resizeLast=0;collapsible=1;marginBottom=0;whiteSpace=wrap;html=1;" vertex="1" parent="tUy74sg2PU9ppFAQazkP-85">
          <mxGeometry x="150" y="330" width="140" height="120" as="geometry" />
        </mxCell>
        <mxCell id="tUy74sg2PU9ppFAQazkP-81" value="Computers" style="text;strokeColor=none;fillColor=none;align=left;verticalAlign=middle;spacingLeft=4;spacingRight=4;overflow=hidden;points=[[0,0.5],[1,0.5]];portConstraint=eastwest;rotatable=0;whiteSpace=wrap;html=1;" vertex="1" parent="tUy74sg2PU9ppFAQazkP-80">
          <mxGeometry y="30" width="140" height="30" as="geometry" />
        </mxCell>
        <mxCell id="tUy74sg2PU9ppFAQazkP-82" value="Plethora peripherals" style="text;strokeColor=none;fillColor=none;align=left;verticalAlign=middle;spacingLeft=4;spacingRight=4;overflow=hidden;points=[[0,0.5],[1,0.5]];portConstraint=eastwest;rotatable=0;whiteSpace=wrap;html=1;" vertex="1" parent="tUy74sg2PU9ppFAQazkP-80">
          <mxGeometry y="60" width="140" height="30" as="geometry" />
        </mxCell>
        <mxCell id="tUy74sg2PU9ppFAQazkP-83" value="CC / SC peripherals" style="text;strokeColor=none;fillColor=none;align=left;verticalAlign=middle;spacingLeft=4;spacingRight=4;overflow=hidden;points=[[0,0.5],[1,0.5]];portConstraint=eastwest;rotatable=0;whiteSpace=wrap;html=1;" vertex="1" parent="tUy74sg2PU9ppFAQazkP-80">
          <mxGeometry y="90" width="140" height="30" as="geometry" />
        </mxCell>
        <mxCell id="tUy74sg2PU9ppFAQazkP-90" value="Items" style="swimlane;fontStyle=0;childLayout=stackLayout;horizontal=1;startSize=30;horizontalStack=0;resizeParent=1;resizeParentMax=0;resizeLast=0;collapsible=1;marginBottom=0;whiteSpace=wrap;html=1;" vertex="1" parent="tUy74sg2PU9ppFAQazkP-85">
          <mxGeometry x="150" y="450" width="140" height="60" as="geometry" />
        </mxCell>
        <mxCell id="tUy74sg2PU9ppFAQazkP-91" value="Items" style="text;strokeColor=none;fillColor=none;align=left;verticalAlign=middle;spacingLeft=4;spacingRight=4;overflow=hidden;points=[[0,0.5],[1,0.5]];portConstraint=eastwest;rotatable=0;whiteSpace=wrap;html=1;" vertex="1" parent="tUy74sg2PU9ppFAQazkP-90">
          <mxGeometry y="30" width="140" height="30" as="geometry" />
        </mxCell>
        <mxCell id="tUy74sg2PU9ppFAQazkP-94" value="Tools" style="swimlane;fontStyle=0;childLayout=stackLayout;horizontal=1;startSize=30;horizontalStack=0;resizeParent=1;resizeParentMax=0;resizeLast=0;collapsible=1;marginBottom=0;whiteSpace=wrap;html=1;" vertex="1" parent="tUy74sg2PU9ppFAQazkP-85">
          <mxGeometry x="300" width="140" height="210" as="geometry" />
        </mxCell>
        <mxCell id="tUy74sg2PU9ppFAQazkP-95" value="Pickaxe" style="text;strokeColor=none;fillColor=none;align=left;verticalAlign=middle;spacingLeft=4;spacingRight=4;overflow=hidden;points=[[0,0.5],[1,0.5]];portConstraint=eastwest;rotatable=0;whiteSpace=wrap;html=1;" vertex="1" parent="tUy74sg2PU9ppFAQazkP-94">
          <mxGeometry y="30" width="140" height="30" as="geometry" />
        </mxCell>
        <mxCell id="tUy74sg2PU9ppFAQazkP-96" value="Axe" style="text;strokeColor=none;fillColor=none;align=left;verticalAlign=middle;spacingLeft=4;spacingRight=4;overflow=hidden;points=[[0,0.5],[1,0.5]];portConstraint=eastwest;rotatable=0;whiteSpace=wrap;html=1;" vertex="1" parent="tUy74sg2PU9ppFAQazkP-94">
          <mxGeometry y="60" width="140" height="30" as="geometry" />
        </mxCell>
        <mxCell id="tUy74sg2PU9ppFAQazkP-97" value="Sword" style="text;strokeColor=none;fillColor=none;align=left;verticalAlign=middle;spacingLeft=4;spacingRight=4;overflow=hidden;points=[[0,0.5],[1,0.5]];portConstraint=eastwest;rotatable=0;whiteSpace=wrap;html=1;" vertex="1" parent="tUy74sg2PU9ppFAQazkP-94">
          <mxGeometry y="90" width="140" height="30" as="geometry" />
        </mxCell>
        <mxCell id="tUy74sg2PU9ppFAQazkP-98" value="Shovel" style="text;strokeColor=none;fillColor=none;align=left;verticalAlign=middle;spacingLeft=4;spacingRight=4;overflow=hidden;points=[[0,0.5],[1,0.5]];portConstraint=eastwest;rotatable=0;whiteSpace=wrap;html=1;" vertex="1" parent="tUy74sg2PU9ppFAQazkP-94">
          <mxGeometry y="120" width="140" height="30" as="geometry" />
        </mxCell>
        <mxCell id="tUy74sg2PU9ppFAQazkP-100" value="Hoes?" style="text;strokeColor=none;fillColor=none;align=left;verticalAlign=middle;spacingLeft=4;spacingRight=4;overflow=hidden;points=[[0,0.5],[1,0.5]];portConstraint=eastwest;rotatable=0;whiteSpace=wrap;html=1;" vertex="1" parent="tUy74sg2PU9ppFAQazkP-94">
          <mxGeometry y="150" width="140" height="30" as="geometry" />
        </mxCell>
        <mxCell id="tUy74sg2PU9ppFAQazkP-107" value="Other" style="text;strokeColor=none;fillColor=none;align=left;verticalAlign=middle;spacingLeft=4;spacingRight=4;overflow=hidden;points=[[0,0.5],[1,0.5]];portConstraint=eastwest;rotatable=0;whiteSpace=wrap;html=1;" vertex="1" parent="tUy74sg2PU9ppFAQazkP-94">
          <mxGeometry y="180" width="140" height="30" as="geometry" />
        </mxCell>
        <mxCell id="tUy74sg2PU9ppFAQazkP-101" value="Armour" style="swimlane;fontStyle=0;childLayout=stackLayout;horizontal=1;startSize=30;horizontalStack=0;resizeParent=1;resizeParentMax=0;resizeLast=0;collapsible=1;marginBottom=0;whiteSpace=wrap;html=1;" vertex="1" parent="tUy74sg2PU9ppFAQazkP-85">
          <mxGeometry x="300" y="210" width="140" height="180" as="geometry" />
        </mxCell>
        <mxCell id="tUy74sg2PU9ppFAQazkP-102" value="Helmet" style="text;strokeColor=none;fillColor=none;align=left;verticalAlign=middle;spacingLeft=4;spacingRight=4;overflow=hidden;points=[[0,0.5],[1,0.5]];portConstraint=eastwest;rotatable=0;whiteSpace=wrap;html=1;" vertex="1" parent="tUy74sg2PU9ppFAQazkP-101">
          <mxGeometry y="30" width="140" height="30" as="geometry" />
        </mxCell>
        <mxCell id="tUy74sg2PU9ppFAQazkP-103" value="Chest" style="text;strokeColor=none;fillColor=none;align=left;verticalAlign=middle;spacingLeft=4;spacingRight=4;overflow=hidden;points=[[0,0.5],[1,0.5]];portConstraint=eastwest;rotatable=0;whiteSpace=wrap;html=1;" vertex="1" parent="tUy74sg2PU9ppFAQazkP-101">
          <mxGeometry y="60" width="140" height="30" as="geometry" />
        </mxCell>
        <mxCell id="tUy74sg2PU9ppFAQazkP-104" value="Leggings" style="text;strokeColor=none;fillColor=none;align=left;verticalAlign=middle;spacingLeft=4;spacingRight=4;overflow=hidden;points=[[0,0.5],[1,0.5]];portConstraint=eastwest;rotatable=0;whiteSpace=wrap;html=1;" vertex="1" parent="tUy74sg2PU9ppFAQazkP-101">
          <mxGeometry y="90" width="140" height="30" as="geometry" />
        </mxCell>
        <mxCell id="tUy74sg2PU9ppFAQazkP-105" value="Boots" style="text;strokeColor=none;fillColor=none;align=left;verticalAlign=middle;spacingLeft=4;spacingRight=4;overflow=hidden;points=[[0,0.5],[1,0.5]];portConstraint=eastwest;rotatable=0;whiteSpace=wrap;html=1;" vertex="1" parent="tUy74sg2PU9ppFAQazkP-101">
          <mxGeometry y="120" width="140" height="30" as="geometry" />
        </mxCell>
        <mxCell id="tUy74sg2PU9ppFAQazkP-106" value="Other" style="text;strokeColor=none;fillColor=none;align=left;verticalAlign=middle;spacingLeft=4;spacingRight=4;overflow=hidden;points=[[0,0.5],[1,0.5]];portConstraint=eastwest;rotatable=0;whiteSpace=wrap;html=1;" vertex="1" parent="tUy74sg2PU9ppFAQazkP-101">
          <mxGeometry y="150" width="140" height="30" as="geometry" />
        </mxCell>
        <mxCell id="tUy74sg2PU9ppFAQazkP-117" style="edgeStyle=orthogonalEdgeStyle;rounded=0;orthogonalLoop=1;jettySize=auto;html=1;" edge="1" parent="WIyWlLk6GJQsqaUBKTNV-1" source="tUy74sg2PU9ppFAQazkP-116" target="tUy74sg2PU9ppFAQazkP-118">
          <mxGeometry relative="1" as="geometry">
            <mxPoint x="100" y="350" as="targetPoint" />
          </mxGeometry>
        </mxCell>
        <mxCell id="tUy74sg2PU9ppFAQazkP-116" value="Pull Files" style="shape=process;whiteSpace=wrap;html=1;backgroundOutline=1;" vertex="1" parent="WIyWlLk6GJQsqaUBKTNV-1">
          <mxGeometry x="40" y="240" width="120" height="60" as="geometry" />
        </mxCell>
        <mxCell id="tUy74sg2PU9ppFAQazkP-115" style="edgeStyle=orthogonalEdgeStyle;rounded=0;orthogonalLoop=1;jettySize=auto;html=1;" edge="1" parent="WIyWlLk6GJQsqaUBKTNV-1" source="tUy74sg2PU9ppFAQazkP-3" target="tUy74sg2PU9ppFAQazkP-116">
          <mxGeometry relative="1" as="geometry">
            <mxPoint x="100" y="270" as="targetPoint" />
          </mxGeometry>
        </mxCell>
        <mxCell id="tUy74sg2PU9ppFAQazkP-119" style="edgeStyle=orthogonalEdgeStyle;rounded=0;orthogonalLoop=1;jettySize=auto;html=1;" edge="1" parent="WIyWlLk6GJQsqaUBKTNV-1" source="tUy74sg2PU9ppFAQazkP-118" target="tUy74sg2PU9ppFAQazkP-120">
          <mxGeometry relative="1" as="geometry">
            <mxPoint x="100" y="430" as="targetPoint" />
          </mxGeometry>
        </mxCell>
        <mxCell id="tUy74sg2PU9ppFAQazkP-121" style="edgeStyle=orthogonalEdgeStyle;rounded=0;orthogonalLoop=1;jettySize=auto;html=1;" edge="1" parent="WIyWlLk6GJQsqaUBKTNV-1" source="tUy74sg2PU9ppFAQazkP-118" target="tUy74sg2PU9ppFAQazkP-122">
          <mxGeometry relative="1" as="geometry">
            <mxPoint x="250" y="420" as="targetPoint" />
          </mxGeometry>
        </mxCell>
        <mxCell id="tUy74sg2PU9ppFAQazkP-118" value="Get Player Inventory" style="shape=process;whiteSpace=wrap;html=1;backgroundOutline=1;" vertex="1" parent="WIyWlLk6GJQsqaUBKTNV-1">
          <mxGeometry x="40" y="320" width="120" height="60" as="geometry" />
        </mxCell>
        <mxCell id="tUy74sg2PU9ppFAQazkP-123" style="edgeStyle=orthogonalEdgeStyle;rounded=0;orthogonalLoop=1;jettySize=auto;html=1;" edge="1" parent="WIyWlLk6GJQsqaUBKTNV-1" source="tUy74sg2PU9ppFAQazkP-120" target="tUy74sg2PU9ppFAQazkP-125">
          <mxGeometry relative="1" as="geometry">
            <mxPoint x="170" y="520" as="targetPoint" />
            <Array as="points">
              <mxPoint x="100" y="490" />
              <mxPoint x="170" y="490" />
            </Array>
          </mxGeometry>
        </mxCell>
        <mxCell id="tUy74sg2PU9ppFAQazkP-120" value="Display Inventory items for refill" style="shape=process;whiteSpace=wrap;html=1;backgroundOutline=1;" vertex="1" parent="WIyWlLk6GJQsqaUBKTNV-1">
          <mxGeometry x="40" y="400" width="120" height="60" as="geometry" />
        </mxCell>
        <mxCell id="tUy74sg2PU9ppFAQazkP-152" value="Client GUI" style="swimlane;whiteSpace=wrap;html=1;" vertex="1" parent="WIyWlLk6GJQsqaUBKTNV-1">
          <mxGeometry x="40" y="1070" width="300" height="380" as="geometry" />
        </mxCell>
        <mxCell id="tUy74sg2PU9ppFAQazkP-155" value="" style="rounded=0;whiteSpace=wrap;html=1;fillColor=#808080;strokeColor=#36393d;" vertex="1" parent="tUy74sg2PU9ppFAQazkP-152">
          <mxGeometry y="20" width="300" height="360" as="geometry" />
        </mxCell>
        <mxCell id="tUy74sg2PU9ppFAQazkP-156" value="Player" style="rounded=0;whiteSpace=wrap;html=1;fillColor=#000033;strokeColor=none;fontColor=#ffffff;" vertex="1" parent="tUy74sg2PU9ppFAQazkP-152">
          <mxGeometry y="20" width="100" height="30" as="geometry" />
        </mxCell>
        <mxCell id="tUy74sg2PU9ppFAQazkP-157" value="" style="rounded=0;whiteSpace=wrap;html=1;fillColor=#1ba1e2;strokeColor=none;fontColor=#ffffff;" vertex="1" parent="tUy74sg2PU9ppFAQazkP-152">
          <mxGeometry x="100" y="20" width="100" height="30" as="geometry" />
        </mxCell>
        <mxCell id="tUy74sg2PU9ppFAQazkP-158" value="" style="rounded=0;whiteSpace=wrap;html=1;fillColor=#0050ef;strokeColor=none;fontColor=#ffffff;" vertex="1" parent="tUy74sg2PU9ppFAQazkP-152">
          <mxGeometry x="200" y="20" width="100" height="30" as="geometry" />
        </mxCell>
        <mxCell id="tUy74sg2PU9ppFAQazkP-169" value="" style="rounded=0;whiteSpace=wrap;html=1;fillColor=#0050ef;strokeColor=#1A1A1A;fontColor=#ffffff;strokeWidth=6;" vertex="1" parent="tUy74sg2PU9ppFAQazkP-152">
          <mxGeometry x="10" y="50" width="280" height="320" as="geometry" />
        </mxCell>
        <mxCell id="tUy74sg2PU9ppFAQazkP-171" value="Item Quick" style="swimlane;fontStyle=0;childLayout=stackLayout;horizontal=1;startSize=30;horizontalStack=0;resizeParent=1;resizeParentMax=0;resizeLast=0;collapsible=1;marginBottom=0;whiteSpace=wrap;html=1;" vertex="1" parent="tUy74sg2PU9ppFAQazkP-152">
          <mxGeometry x="10" y="50" width="280" height="120" as="geometry" />
        </mxCell>
        <mxCell id="tUy74sg2PU9ppFAQazkP-172" value="Cobble&amp;nbsp; &amp;nbsp; &amp;nbsp; +1&amp;nbsp; &amp;nbsp; +10&amp;nbsp; &amp;nbsp; +64&amp;nbsp; &amp;nbsp; &amp;nbsp; &amp;nbsp; &amp;nbsp; &amp;nbsp; &amp;nbsp; &amp;nbsp; &amp;nbsp; &amp;nbsp; Remove" style="text;strokeColor=none;fillColor=none;align=left;verticalAlign=middle;spacingLeft=4;spacingRight=4;overflow=hidden;points=[[0,0.5],[1,0.5]];portConstraint=eastwest;rotatable=0;whiteSpace=wrap;html=1;" vertex="1" parent="tUy74sg2PU9ppFAQazkP-171">
          <mxGeometry y="30" width="280" height="30" as="geometry" />
        </mxCell>
        <mxCell id="tUy74sg2PU9ppFAQazkP-173" value="Dirt&amp;nbsp; &amp;nbsp; &amp;nbsp; +1&amp;nbsp; &amp;nbsp; +10&amp;nbsp; &amp;nbsp; +64&amp;nbsp; &amp;nbsp; &amp;nbsp; &amp;nbsp; &amp;nbsp; &amp;nbsp; &amp;nbsp; &amp;nbsp; &amp;nbsp; &amp;nbsp; Remove" style="text;strokeColor=none;fillColor=none;align=left;verticalAlign=middle;spacingLeft=4;spacingRight=4;overflow=hidden;points=[[0,0.5],[1,0.5]];portConstraint=eastwest;rotatable=0;whiteSpace=wrap;html=1;" vertex="1" parent="tUy74sg2PU9ppFAQazkP-171">
          <mxGeometry y="60" width="280" height="30" as="geometry" />
        </mxCell>
        <mxCell id="tUy74sg2PU9ppFAQazkP-174" value="Stone&amp;nbsp; &amp;nbsp; &amp;nbsp; +1&amp;nbsp; &amp;nbsp; +10&amp;nbsp; &amp;nbsp; +64&amp;nbsp; &amp;nbsp; &amp;nbsp; &amp;nbsp; &amp;nbsp; &amp;nbsp; &amp;nbsp; &amp;nbsp; &amp;nbsp; &amp;nbsp; Remove" style="text;strokeColor=none;fillColor=none;align=left;verticalAlign=middle;spacingLeft=4;spacingRight=4;overflow=hidden;points=[[0,0.5],[1,0.5]];portConstraint=eastwest;rotatable=0;whiteSpace=wrap;html=1;" vertex="1" parent="tUy74sg2PU9ppFAQazkP-171">
          <mxGeometry y="90" width="280" height="30" as="geometry" />
        </mxCell>
        <mxCell id="tUy74sg2PU9ppFAQazkP-175" value="Settings" style="swimlane;fontStyle=0;childLayout=stackLayout;horizontal=1;startSize=30;horizontalStack=0;resizeParent=1;resizeParentMax=0;resizeLast=0;collapsible=1;marginBottom=0;whiteSpace=wrap;html=1;" vertex="1" parent="tUy74sg2PU9ppFAQazkP-152">
          <mxGeometry x="10" y="180" width="280" height="120" as="geometry" />
        </mxCell>
        <mxCell id="tUy74sg2PU9ppFAQazkP-176" value="Auto Refill&amp;nbsp; &amp;nbsp; &amp;nbsp; &amp;nbsp; &amp;nbsp; &amp;nbsp; &amp;nbsp; &amp;nbsp; &amp;nbsp; &amp;nbsp; &amp;nbsp; &amp;nbsp; &amp;nbsp; &amp;nbsp; &amp;nbsp; &amp;nbsp; &amp;nbsp; &amp;nbsp; &amp;nbsp; &amp;nbsp; &amp;nbsp; &amp;nbsp; &amp;nbsp; &amp;nbsp; &amp;nbsp; &amp;nbsp; &amp;nbsp; &amp;nbsp; &amp;nbsp; &amp;nbsp; &amp;nbsp;X" style="text;strokeColor=none;fillColor=none;align=left;verticalAlign=middle;spacingLeft=4;spacingRight=4;overflow=hidden;points=[[0,0.5],[1,0.5]];portConstraint=eastwest;rotatable=0;whiteSpace=wrap;html=1;" vertex="1" parent="tUy74sg2PU9ppFAQazkP-175">
          <mxGeometry y="30" width="280" height="30" as="geometry" />
        </mxCell>
        <mxCell id="tUy74sg2PU9ppFAQazkP-180" value="Auto Stack Removal&amp;nbsp; &amp;nbsp; &amp;nbsp; &amp;nbsp; &amp;nbsp; &amp;nbsp; &amp;nbsp; &amp;nbsp; &amp;nbsp; &amp;nbsp; &amp;nbsp; &amp;nbsp; &amp;nbsp; &amp;nbsp; &amp;nbsp; &amp;nbsp; &amp;nbsp; &amp;nbsp; &amp;nbsp; &amp;nbsp; &amp;nbsp; &amp;nbsp; &amp;nbsp;X" style="text;strokeColor=none;fillColor=none;align=left;verticalAlign=middle;spacingLeft=4;spacingRight=4;overflow=hidden;points=[[0,0.5],[1,0.5]];portConstraint=eastwest;rotatable=0;whiteSpace=wrap;html=1;" vertex="1" parent="tUy74sg2PU9ppFAQazkP-175">
          <mxGeometry y="60" width="280" height="30" as="geometry" />
        </mxCell>
        <mxCell id="tUy74sg2PU9ppFAQazkP-179" value="Elytra Quick Switch&amp;nbsp; &amp;nbsp; &amp;nbsp; &amp;nbsp; &amp;nbsp; &amp;nbsp; &amp;nbsp; &amp;nbsp; &amp;nbsp; &amp;nbsp; &amp;nbsp; &amp;nbsp; &amp;nbsp; &amp;nbsp; &amp;nbsp; &amp;nbsp; &amp;nbsp; &amp;nbsp; &amp;nbsp; &amp;nbsp; &amp;nbsp; &amp;nbsp; &amp;nbsp; &amp;nbsp;X" style="text;strokeColor=none;fillColor=none;align=left;verticalAlign=middle;spacingLeft=4;spacingRight=4;overflow=hidden;points=[[0,0.5],[1,0.5]];portConstraint=eastwest;rotatable=0;whiteSpace=wrap;html=1;" vertex="1" parent="tUy74sg2PU9ppFAQazkP-175">
          <mxGeometry y="90" width="280" height="30" as="geometry" />
        </mxCell>
        <mxCell id="tUy74sg2PU9ppFAQazkP-181" value="Client GUI" style="swimlane;whiteSpace=wrap;html=1;" vertex="1" parent="WIyWlLk6GJQsqaUBKTNV-1">
          <mxGeometry x="370" y="1070" width="300" height="380" as="geometry" />
        </mxCell>
        <mxCell id="tUy74sg2PU9ppFAQazkP-182" value="" style="rounded=0;whiteSpace=wrap;html=1;fillColor=#808080;strokeColor=#36393d;" vertex="1" parent="tUy74sg2PU9ppFAQazkP-181">
          <mxGeometry y="20" width="300" height="360" as="geometry" />
        </mxCell>
        <mxCell id="tUy74sg2PU9ppFAQazkP-183" value="" style="rounded=0;whiteSpace=wrap;html=1;fillColor=#000033;strokeColor=none;fontColor=#ffffff;" vertex="1" parent="tUy74sg2PU9ppFAQazkP-181">
          <mxGeometry y="20" width="100" height="30" as="geometry" />
        </mxCell>
        <mxCell id="tUy74sg2PU9ppFAQazkP-184" value="Depo" style="rounded=0;whiteSpace=wrap;html=1;fillColor=#1ba1e2;strokeColor=none;fontColor=#ffffff;" vertex="1" parent="tUy74sg2PU9ppFAQazkP-181">
          <mxGeometry x="100" y="20" width="100" height="30" as="geometry" />
        </mxCell>
        <mxCell id="tUy74sg2PU9ppFAQazkP-185" value="" style="rounded=0;whiteSpace=wrap;html=1;fillColor=#0050ef;strokeColor=none;fontColor=#ffffff;" vertex="1" parent="tUy74sg2PU9ppFAQazkP-181">
          <mxGeometry x="200" y="20" width="100" height="30" as="geometry" />
        </mxCell>
        <mxCell id="tUy74sg2PU9ppFAQazkP-186" value="" style="rounded=0;whiteSpace=wrap;html=1;fillColor=#0050ef;strokeColor=#1A1A1A;fontColor=#ffffff;strokeWidth=6;" vertex="1" parent="tUy74sg2PU9ppFAQazkP-181">
          <mxGeometry x="10" y="50" width="280" height="320" as="geometry" />
        </mxCell>
        <mxCell id="tUy74sg2PU9ppFAQazkP-187" value="Search \-/" style="swimlane;fontStyle=0;childLayout=stackLayout;horizontal=1;startSize=30;horizontalStack=0;resizeParent=1;resizeParentMax=0;resizeLast=0;collapsible=1;marginBottom=0;whiteSpace=wrap;html=1;" vertex="1" parent="tUy74sg2PU9ppFAQazkP-181">
          <mxGeometry x="10" y="50" width="280" height="300" as="geometry" />
        </mxCell>
        <mxCell id="tUy74sg2PU9ppFAQazkP-188" value="Cobble&amp;nbsp; &amp;nbsp; &amp;nbsp; +1&amp;nbsp; &amp;nbsp; +10&amp;nbsp; &amp;nbsp; +64&amp;nbsp; &amp;nbsp; &amp;nbsp; &amp;nbsp; &amp;nbsp; &amp;nbsp; &amp;nbsp; &amp;nbsp; &amp;nbsp; &amp;nbsp;&amp;nbsp;" style="text;strokeColor=none;fillColor=none;align=left;verticalAlign=middle;spacingLeft=4;spacingRight=4;overflow=hidden;points=[[0,0.5],[1,0.5]];portConstraint=eastwest;rotatable=0;whiteSpace=wrap;html=1;" vertex="1" parent="tUy74sg2PU9ppFAQazkP-187">
          <mxGeometry y="30" width="280" height="30" as="geometry" />
        </mxCell>
        <mxCell id="tUy74sg2PU9ppFAQazkP-189" value="Dirt&amp;nbsp; &amp;nbsp; &amp;nbsp; +1&amp;nbsp; &amp;nbsp; +10&amp;nbsp; &amp;nbsp; +64&amp;nbsp; &amp;nbsp; &amp;nbsp; &amp;nbsp; &amp;nbsp; &amp;nbsp; &amp;nbsp; &amp;nbsp; &amp;nbsp; &amp;nbsp;&amp;nbsp;" style="text;strokeColor=none;fillColor=none;align=left;verticalAlign=middle;spacingLeft=4;spacingRight=4;overflow=hidden;points=[[0,0.5],[1,0.5]];portConstraint=eastwest;rotatable=0;whiteSpace=wrap;html=1;" vertex="1" parent="tUy74sg2PU9ppFAQazkP-187">
          <mxGeometry y="60" width="280" height="30" as="geometry" />
        </mxCell>
        <mxCell id="tUy74sg2PU9ppFAQazkP-190" value="Stone&amp;nbsp; &amp;nbsp; &amp;nbsp; +1&amp;nbsp; &amp;nbsp; +10&amp;nbsp; &amp;nbsp; +64&amp;nbsp; &amp;nbsp; &amp;nbsp; &amp;nbsp; &amp;nbsp; &amp;nbsp; &amp;nbsp; &amp;nbsp; &amp;nbsp; &amp;nbsp;&amp;nbsp;" style="text;strokeColor=none;fillColor=none;align=left;verticalAlign=middle;spacingLeft=4;spacingRight=4;overflow=hidden;points=[[0,0.5],[1,0.5]];portConstraint=eastwest;rotatable=0;whiteSpace=wrap;html=1;" vertex="1" parent="tUy74sg2PU9ppFAQazkP-187">
          <mxGeometry y="90" width="280" height="30" as="geometry" />
        </mxCell>
        <mxCell id="tUy74sg2PU9ppFAQazkP-195" value="Stone&amp;nbsp; &amp;nbsp; &amp;nbsp; +1&amp;nbsp; &amp;nbsp; +10&amp;nbsp; &amp;nbsp; +64&amp;nbsp; &amp;nbsp; &amp;nbsp; &amp;nbsp; &amp;nbsp; &amp;nbsp; &amp;nbsp; &amp;nbsp; &amp;nbsp; &amp;nbsp;&amp;nbsp;" style="text;strokeColor=none;fillColor=none;align=left;verticalAlign=middle;spacingLeft=4;spacingRight=4;overflow=hidden;points=[[0,0.5],[1,0.5]];portConstraint=eastwest;rotatable=0;whiteSpace=wrap;html=1;" vertex="1" parent="tUy74sg2PU9ppFAQazkP-187">
          <mxGeometry y="120" width="280" height="30" as="geometry" />
        </mxCell>
        <mxCell id="tUy74sg2PU9ppFAQazkP-196" value="Stone&amp;nbsp; &amp;nbsp; &amp;nbsp; +1&amp;nbsp; &amp;nbsp; +10&amp;nbsp; &amp;nbsp; +64&amp;nbsp; &amp;nbsp; &amp;nbsp; &amp;nbsp; &amp;nbsp; &amp;nbsp; &amp;nbsp; &amp;nbsp; &amp;nbsp; &amp;nbsp;&amp;nbsp;" style="text;strokeColor=none;fillColor=none;align=left;verticalAlign=middle;spacingLeft=4;spacingRight=4;overflow=hidden;points=[[0,0.5],[1,0.5]];portConstraint=eastwest;rotatable=0;whiteSpace=wrap;html=1;" vertex="1" parent="tUy74sg2PU9ppFAQazkP-187">
          <mxGeometry y="150" width="280" height="30" as="geometry" />
        </mxCell>
        <mxCell id="tUy74sg2PU9ppFAQazkP-198" value="Stone&amp;nbsp; &amp;nbsp; &amp;nbsp; +1&amp;nbsp; &amp;nbsp; +10&amp;nbsp; &amp;nbsp; +64&amp;nbsp; &amp;nbsp; &amp;nbsp; &amp;nbsp; &amp;nbsp; &amp;nbsp; &amp;nbsp; &amp;nbsp; &amp;nbsp; &amp;nbsp;&amp;nbsp;" style="text;strokeColor=none;fillColor=none;align=left;verticalAlign=middle;spacingLeft=4;spacingRight=4;overflow=hidden;points=[[0,0.5],[1,0.5]];portConstraint=eastwest;rotatable=0;whiteSpace=wrap;html=1;" vertex="1" parent="tUy74sg2PU9ppFAQazkP-187">
          <mxGeometry y="180" width="280" height="30" as="geometry" />
        </mxCell>
        <mxCell id="tUy74sg2PU9ppFAQazkP-199" value="Stone&amp;nbsp; &amp;nbsp; &amp;nbsp; +1&amp;nbsp; &amp;nbsp; +10&amp;nbsp; &amp;nbsp; +64&amp;nbsp; &amp;nbsp; &amp;nbsp; &amp;nbsp; &amp;nbsp; &amp;nbsp; &amp;nbsp; &amp;nbsp; &amp;nbsp; &amp;nbsp;&amp;nbsp;" style="text;strokeColor=none;fillColor=none;align=left;verticalAlign=middle;spacingLeft=4;spacingRight=4;overflow=hidden;points=[[0,0.5],[1,0.5]];portConstraint=eastwest;rotatable=0;whiteSpace=wrap;html=1;" vertex="1" parent="tUy74sg2PU9ppFAQazkP-187">
          <mxGeometry y="210" width="280" height="30" as="geometry" />
        </mxCell>
        <mxCell id="tUy74sg2PU9ppFAQazkP-200" value="Stone&amp;nbsp; &amp;nbsp; &amp;nbsp; +1&amp;nbsp; &amp;nbsp; +10&amp;nbsp; &amp;nbsp; +64&amp;nbsp; &amp;nbsp; &amp;nbsp; &amp;nbsp; &amp;nbsp; &amp;nbsp; &amp;nbsp; &amp;nbsp; &amp;nbsp; &amp;nbsp;&amp;nbsp;" style="text;strokeColor=none;fillColor=none;align=left;verticalAlign=middle;spacingLeft=4;spacingRight=4;overflow=hidden;points=[[0,0.5],[1,0.5]];portConstraint=eastwest;rotatable=0;whiteSpace=wrap;html=1;" vertex="1" parent="tUy74sg2PU9ppFAQazkP-187">
          <mxGeometry y="240" width="280" height="30" as="geometry" />
        </mxCell>
        <mxCell id="tUy74sg2PU9ppFAQazkP-197" value="Stone&amp;nbsp; &amp;nbsp; &amp;nbsp; +1&amp;nbsp; &amp;nbsp; +10&amp;nbsp; &amp;nbsp; +64&amp;nbsp; &amp;nbsp; &amp;nbsp; &amp;nbsp; &amp;nbsp; &amp;nbsp; &amp;nbsp; &amp;nbsp; &amp;nbsp; &amp;nbsp;&amp;nbsp;" style="text;strokeColor=none;fillColor=none;align=left;verticalAlign=middle;spacingLeft=4;spacingRight=4;overflow=hidden;points=[[0,0.5],[1,0.5]];portConstraint=eastwest;rotatable=0;whiteSpace=wrap;html=1;" vertex="1" parent="tUy74sg2PU9ppFAQazkP-187">
          <mxGeometry y="270" width="280" height="30" as="geometry" />
        </mxCell>
        <mxCell id="tUy74sg2PU9ppFAQazkP-201" value="Client GUI" style="swimlane;whiteSpace=wrap;html=1;" vertex="1" parent="WIyWlLk6GJQsqaUBKTNV-1">
          <mxGeometry x="710" y="1070" width="300" height="380" as="geometry" />
        </mxCell>
        <mxCell id="tUy74sg2PU9ppFAQazkP-202" value="" style="rounded=0;whiteSpace=wrap;html=1;fillColor=#808080;strokeColor=#36393d;" vertex="1" parent="tUy74sg2PU9ppFAQazkP-201">
          <mxGeometry y="20" width="300" height="360" as="geometry" />
        </mxCell>
        <mxCell id="tUy74sg2PU9ppFAQazkP-203" value="" style="rounded=0;whiteSpace=wrap;html=1;fillColor=#000033;strokeColor=none;fontColor=#ffffff;" vertex="1" parent="tUy74sg2PU9ppFAQazkP-201">
          <mxGeometry y="20" width="100" height="30" as="geometry" />
        </mxCell>
        <mxCell id="tUy74sg2PU9ppFAQazkP-204" value="" style="rounded=0;whiteSpace=wrap;html=1;fillColor=#1ba1e2;strokeColor=none;fontColor=#ffffff;" vertex="1" parent="tUy74sg2PU9ppFAQazkP-201">
          <mxGeometry x="100" y="20" width="100" height="30" as="geometry" />
        </mxCell>
        <mxCell id="tUy74sg2PU9ppFAQazkP-205" value="Settings" style="rounded=0;whiteSpace=wrap;html=1;fillColor=#0050ef;strokeColor=none;fontColor=#ffffff;" vertex="1" parent="tUy74sg2PU9ppFAQazkP-201">
          <mxGeometry x="200" y="20" width="100" height="30" as="geometry" />
        </mxCell>
        <mxCell id="tUy74sg2PU9ppFAQazkP-206" value="" style="rounded=0;whiteSpace=wrap;html=1;fillColor=#0050ef;strokeColor=#1A1A1A;fontColor=#ffffff;strokeWidth=6;" vertex="1" parent="tUy74sg2PU9ppFAQazkP-201">
          <mxGeometry x="10" y="50" width="280" height="320" as="geometry" />
        </mxCell>
        <mxCell id="tUy74sg2PU9ppFAQazkP-207" value="Depo Settings" style="swimlane;fontStyle=0;childLayout=stackLayout;horizontal=1;startSize=30;horizontalStack=0;resizeParent=1;resizeParentMax=0;resizeLast=0;collapsible=1;marginBottom=0;whiteSpace=wrap;html=1;" vertex="1" parent="tUy74sg2PU9ppFAQazkP-201">
          <mxGeometry x="10" y="50" width="280" height="60" as="geometry" />
        </mxCell>
        <mxCell id="tUy74sg2PU9ppFAQazkP-208" value="Verify Depo" style="text;strokeColor=none;fillColor=none;align=left;verticalAlign=middle;spacingLeft=4;spacingRight=4;overflow=hidden;points=[[0,0.5],[1,0.5]];portConstraint=eastwest;rotatable=0;whiteSpace=wrap;html=1;" vertex="1" parent="tUy74sg2PU9ppFAQazkP-207">
          <mxGeometry y="30" width="280" height="30" as="geometry" />
        </mxCell>
        <mxCell id="tUy74sg2PU9ppFAQazkP-217" value="Client settings" style="swimlane;fontStyle=0;childLayout=stackLayout;horizontal=1;startSize=30;horizontalStack=0;resizeParent=1;resizeParentMax=0;resizeLast=0;collapsible=1;marginBottom=0;whiteSpace=wrap;html=1;" vertex="1" parent="tUy74sg2PU9ppFAQazkP-201">
          <mxGeometry x="10" y="140" width="280" height="60" as="geometry" />
        </mxCell>
        <mxCell id="tUy74sg2PU9ppFAQazkP-218" value="ID" style="text;strokeColor=none;fillColor=none;align=left;verticalAlign=middle;spacingLeft=4;spacingRight=4;overflow=hidden;points=[[0,0.5],[1,0.5]];portConstraint=eastwest;rotatable=0;whiteSpace=wrap;html=1;" vertex="1" parent="tUy74sg2PU9ppFAQazkP-217">
          <mxGeometry y="30" width="280" height="30" as="geometry" />
        </mxCell>
      </root>
    </mxGraphModel>
  </diagram>
</mxfile>
